<svg xmlns="http://www.w3.org/2000/svg" xmlns:xlink="http://www.w3.org/1999/xlink" xmlns:inkscape="http://www.inkscape.org/namespaces/inkscape" version="1.1" width="254" height="153.2" viewBox="0 0 254 153.2">
<g inkscape:groupmode="layer" inkscape:label="Layer 1">
<path transform="matrix(1,0,0,-1,1,152.2)" d="M0 151.2H252V0H0Z" fill="#ffffff" fill-rule="evenodd"/>
<path transform="matrix(1,0,0,-1,1,152.2)" d="M37.5613 86.506 76.9742 107.7749 185.1197 96.3595 214.4395 79.537 214.7998 48.8529 212.3926 78.2039 184.9997 93.115 78.296 101.2859 40.6854 84.5833 37.2005 48.8529Z" fill="#296780" fill-rule="evenodd"/>
<path transform="matrix(1,0,0,-1,1,152.2)" stroke-width="1.0001" stroke-linecap="butt" stroke-linejoin="round" fill="none" stroke="#ffffff" d="M59.1891 69.1977C58.4107 69.5832 57.113 69.9911 55.391 69.9911 51.8051 69.9911 49.517 67.928 49.517 65.1849 49.517 62.8271 51.3334 61.2629 54.0227 60.2201 56.1696 59.3586 57.0895 58.4518 57.0895 56.9781 57.0895 55.4139 55.8867 54.3484 53.7398 54.3484 52.2533 54.3484 50.7906 54.8019 49.8234 55.3686L49.21 53.1694C50.0828 52.6028 51.8757 52.1266 53.5745 52.1266 57.6323 52.1266 59.8734 54.303 59.8734 57.2049 59.8734 59.5854 58.4816 61.1042 55.5797 62.3285 53.2913 63.2806 52.2771 64.006 52.2771 65.4797 52.2771 66.5906 53.1734 67.792 55.3204 67.792 56.8066 67.792 57.9387 67.3387 58.5286 67.0212ZM75.6326 69.7416H72.8957V62.5779H65.5353V69.7416H62.7987V52.376H65.5353V60.2654H72.8957V52.376H75.6326ZM87.1217 60.6736C88.9381 61.331 90.3535 62.8498 90.3535 65.0716 90.3535 66.4773 89.8583 67.6786 88.9146 68.4723 87.7822 69.4471 86.131 69.855 83.7717 69.855 82.1438 69.855 80.5397 69.6963 79.3837 69.4925V52.376H82.0967V59.7214H83.7482C85.659 59.7214 86.5318 58.837 87.0273 56.5248 87.4755 54.3937 87.9001 52.8746 88.1597 52.376H90.9907C90.6367 53.0334 90.1885 54.8246 89.646 57.0915 89.2213 58.9277 88.4662 60.152 87.1217 60.6283ZM82.0967 61.6938V67.6559C82.427 67.7466 83.0877 67.8146 84.0076 67.8146 85.9657 67.8146 87.6169 67.0439 87.6169 64.7994 87.6169 62.9405 86.2016 61.6938 83.937 61.6938ZM103.2582 54.5751H96.1569V60.3334H102.4795V62.5099H96.1569V67.5428H102.8571V69.7416H93.4203V52.376H103.2582ZM115.8797 54.5751H108.7784V60.3334H115.1008V62.5099H108.7784V67.5428H115.4784V69.7416H106.0418V52.376H115.8797ZM136.9233 61.7165H131.1667V59.6081H134.2809V54.7112C133.8797 54.5071 133.054 54.3484 131.8745 54.3484 128.336 54.3484 125.8586 56.6609 125.8586 61.0362 125.8586 65.4344 128.5248 67.6786 132.2283 67.6786 133.8797 67.6786 134.9649 67.3841 135.8144 67.0212L136.4278 69.175C135.5312 69.6059 133.9977 69.9004 132.2283 69.9004 126.826 69.9004 122.9805 66.5453 122.9805 60.9228 122.9805 58.157 123.9715 52.1946 131.7804 52.1946 133.9268 52.1946 135.9085 52.6935 136.9233 53.0787ZM140.2021 52.376H142.9387V69.7416H140.2021ZM154.4281 60.6736C156.2445 61.331 157.6599 62.8498 157.6599 65.0716 157.6599 66.4773 157.1647 67.6786 156.221 68.4723 155.0886 69.4471 153.4374 69.855 151.0781 69.855 149.4502 69.855 147.846 69.6963 146.6901 69.4925V52.376H149.4031V59.7214H151.0543C152.9654 59.7214 153.8382 58.837 154.3337 56.5248 154.7819 54.3937 155.2065 52.8746 155.4661 52.376H158.2971C157.9431 53.0334 157.4949 54.8246 156.9521 57.0915 156.5277 58.9277 155.7726 60.152 154.4281 60.6283ZM149.4031 61.6938V67.6559C149.7334 67.7466 150.3941 67.8146 151.314 67.8146 153.2721 67.8146 154.9233 67.0439 154.9233 64.7994 154.9233 62.9405 153.508 61.6938 151.2431 61.6938ZM160.7267 52.376H163.4632V69.7416H160.7267ZM174.9526 60.6736C176.7691 61.331 178.1844 62.8498 178.1844 65.0716 178.1844 66.4773 177.6892 67.6786 176.7455 68.4723 175.6131 69.4471 173.9616 69.855 171.6026 69.855 169.9744 69.855 168.3706 69.6963 167.2143 69.4925V52.376H169.9277V59.7214H171.5788C173.4897 59.7214 174.3627 58.837 174.8582 56.5248 175.3064 54.3937 175.731 52.8746 175.9907 52.376H178.8214C178.4676 53.0334 178.0194 54.8246 177.4766 57.0915 177.0523 58.9277 176.2971 60.152 174.9526 60.6283ZM169.9277 61.6938V67.6559C170.2576 67.7466 170.9184 67.8146 171.8385 67.8146 173.7967 67.8146 175.4478 67.0439 175.4478 64.7994 175.4478 62.9405 174.0325 61.6938 171.7676 61.6938ZM188.8243 69.7416H185.474L179.9535 52.376H182.7612L184.318 57.477H189.8385L191.4661 52.376H194.3444ZM184.7429 59.4947 186.1818 64.059C186.4885 65.1319 186.7717 66.4053 187.0313 67.4748H187.0781C187.3378 66.4053 187.6445 65.1773 187.975 64.04L189.3903 59.4947ZM202.7903 69.7416H200.0537V58.225C200.0537 55.1418 198.9448 54.3711 197.1283 54.3711 196.397 54.3711 195.7836 54.4844 195.3354 54.6432L195.0052 52.4667C195.5713 52.2626 196.5385 52.1266 197.3645 52.1266 200.5257 52.1266 202.7903 53.555 202.7903 58.1343Z"/>
<path transform="matrix(1,0,0,-1,1,152.2)" d="M59.1891 69.1977C58.4107 69.5832 57.113 69.9911 55.391 69.9911 51.8051 69.9911 49.517 67.928 49.517 65.1849 49.517 62.8271 51.3334 61.2629 54.0227 60.2201 56.1696 59.3586 57.0895 58.4518 57.0895 56.9781 57.0895 55.4139 55.8867 54.3484 53.7398 54.3484 52.2533 54.3484 50.7906 54.8019 49.8234 55.3686L49.21 53.1694C50.0828 52.6028 51.8757 52.1266 53.5745 52.1266 57.6323 52.1266 59.8734 54.303 59.8734 57.2049 59.8734 59.5854 58.4816 61.1042 55.5797 62.3285 53.2913 63.2806 52.2771 64.006 52.2771 65.4797 52.2771 66.5906 53.1734 67.792 55.3204 67.792 56.8066 67.792 57.9387 67.3387 58.5286 67.0212ZM75.6326 69.7416H72.8957V62.5779H65.5353V69.7416H62.7987V52.376H65.5353V60.2654H72.8957V52.376H75.6326ZM87.1217 60.6736C88.9381 61.331 90.3535 62.8498 90.3535 65.0716 90.3535 66.4773 89.8583 67.6786 88.9146 68.4723 87.7822 69.4471 86.131 69.855 83.7717 69.855 82.1438 69.855 80.5397 69.6963 79.3837 69.4925V52.376H82.0967V59.7214H83.7482C85.659 59.7214 86.5318 58.837 87.0273 56.5248 87.4755 54.3937 87.9001 52.8746 88.1597 52.376H90.9907C90.6367 53.0334 90.1885 54.8246 89.646 57.0915 89.2213 58.9277 88.4662 60.152 87.1217 60.6283ZM82.0967 61.6938V67.6559C82.427 67.7466 83.0877 67.8146 84.0076 67.8146 85.9657 67.8146 87.6169 67.0439 87.6169 64.7994 87.6169 62.9405 86.2016 61.6938 83.937 61.6938ZM103.2582 54.5751H96.1569V60.3334H102.4795V62.5099H96.1569V67.5428H102.8571V69.7416H93.4203V52.376H103.2582ZM115.8797 54.5751H108.7784V60.3334H115.1008V62.5099H108.7784V67.5428H115.4784V69.7416H106.0418V52.376H115.8797ZM136.9233 61.7165H131.1667V59.6081H134.2809V54.7112C133.8797 54.5071 133.054 54.3484 131.8745 54.3484 128.336 54.3484 125.8586 56.6609 125.8586 61.0362 125.8586 65.4344 128.5248 67.6786 132.2283 67.6786 133.8797 67.6786 134.9649 67.3841 135.8144 67.0212L136.4278 69.175C135.5312 69.6059 133.9977 69.9004 132.2283 69.9004 126.826 69.9004 122.9805 66.5453 122.9805 60.9228 122.9805 58.157 123.9715 52.1946 131.7804 52.1946 133.9268 52.1946 135.9085 52.6935 136.9233 53.0787ZM140.2021 52.376H142.9387V69.7416H140.2021ZM154.4281 60.6736C156.2445 61.331 157.6599 62.8498 157.6599 65.0716 157.6599 66.4773 157.1647 67.6786 156.221 68.4723 155.0886 69.4471 153.4374 69.855 151.0781 69.855 149.4502 69.855 147.846 69.6963 146.6901 69.4925V52.376H149.4031V59.7214H151.0543C152.9654 59.7214 153.8382 58.837 154.3337 56.5248 154.7819 54.3937 155.2065 52.8746 155.4661 52.376H158.2971C157.9431 53.0334 157.4949 54.8246 156.9521 57.0915 156.5277 58.9277 155.7726 60.152 154.4281 60.6283ZM149.4031 61.6938V67.6559C149.7334 67.7466 150.3941 67.8146 151.314 67.8146 153.2721 67.8146 154.9233 67.0439 154.9233 64.7994 154.9233 62.9405 153.508 61.6938 151.2431 61.6938ZM160.7267 52.376H163.4632V69.7416H160.7267ZM174.9526 60.6736C176.7691 61.331 178.1844 62.8498 178.1844 65.0716 178.1844 66.4773 177.6892 67.6786 176.7455 68.4723 175.6131 69.4471 173.9616 69.855 171.6026 69.855 169.9744 69.855 168.3706 69.6963 167.2143 69.4925V52.376H169.9277V59.7214H171.5788C173.4897 59.7214 174.3627 58.837 174.8582 56.5248 175.3064 54.3937 175.731 52.8746 175.9907 52.376H178.8214C178.4676 53.0334 178.0194 54.8246 177.4766 57.0915 177.0523 58.9277 176.2971 60.152 174.9526 60.6283ZM169.9277 61.6938V67.6559C170.2576 67.7466 170.9184 67.8146 171.8385 67.8146 173.7967 67.8146 175.4478 67.0439 175.4478 64.7994 175.4478 62.9405 174.0325 61.6938 171.7676 61.6938ZM188.8243 69.7416H185.474L179.9535 52.376H182.7612L184.318 57.477H189.8385L191.4661 52.376H194.3444ZM184.7429 59.4947 186.1818 64.059C186.4885 65.1319 186.7717 66.4053 187.0313 67.4748H187.0781C187.3378 66.4053 187.6445 65.1773 187.975 64.04L189.3903 59.4947ZM202.7903 69.7416H200.0537V58.225C200.0537 55.1418 198.9448 54.3711 197.1283 54.3711 196.397 54.3711 195.7836 54.4844 195.3354 54.6432L195.0052 52.4667C195.5713 52.2626 196.5385 52.1266 197.3645 52.1266 200.5257 52.1266 202.7903 53.555 202.7903 58.1343Z" fill="#002c43"/>
<path transform="matrix(1,0,0,-1,1,152.2)" d="M147.5895 43.7771C147.5895 43.7292 147.5867 43.6876 147.5813 43.6527 147.5759 43.6181 147.5666 43.5886 147.5546 43.5645 147.5413 43.5404 147.5266 43.5243 147.509 43.5138 147.4917 43.503 147.473 43.4976 147.4517 43.4976H145.0154C144.9553 43.4976 144.8977 43.5178 144.8442 43.5577 144.7906 43.5994 144.7639 43.6703 144.7639 43.772V48.2964C144.7639 48.3982 144.7906 48.469 144.8442 48.5107 144.8977 48.5507 144.9553 48.5708 145.0154 48.5708H147.4234C147.4449 48.5708 147.4637 48.5654 147.4809 48.5546 147.4985 48.5442 147.5118 48.528 147.5226 48.5039 147.532 48.4798 147.5413 48.4503 147.5478 48.4155 147.5546 48.3809 147.5572 48.3367 147.5572 48.2845 147.5572 48.2363 147.5546 48.1961 147.5478 48.1601 147.5413 48.1252 147.532 48.0957 147.5226 48.073 147.5118 48.0518 147.4971 48.0356 147.4809 48.0249 147.4637 48.0144 147.4449 48.009 147.4234 48.009H145.438V46.4196H147.1425C147.164 46.4196 147.1827 46.4142 147.2 46.402 147.2162 46.3901 147.2309 46.374 147.2428 46.3527 147.255 46.3311 147.263 46.3031 147.2683 46.2671 147.2737 46.2297 147.2763 46.1869 147.2763 46.1373 147.2763 46.0891 147.2737 46.0488 147.2683 46.0154 147.263 45.9808 147.255 45.9539 147.2428 45.9326 147.2309 45.9111 147.2162 45.8963 147.2 45.887 147.1827 45.8776 147.164 45.8736 147.1425 45.8736H145.438V44.0595H147.4517C147.473 44.0595 147.4917 44.0541 147.509 44.0436 147.5266 44.0328 147.5413 44.0167 147.5546 43.9954 147.5666 43.9724 147.5759 43.9432 147.5813 43.9084 147.5867 43.8735 147.5895 43.8293 147.5895 43.7771ZM153.866 43.78C153.866 43.7278 153.8566 43.6822 153.8391 43.6462 153.8218 43.6099 153.7991 43.5793 153.771 43.5566 153.743 43.5325 153.7106 43.5163 153.6761 43.5056 153.6398 43.4951 153.6049 43.4897 153.5703 43.4897H153.3467C153.2772 43.4897 153.2157 43.4962 153.1621 43.511 153.11 43.5257 153.0604 43.5512 153.0125 43.5886 152.9654 43.626 152.9172 43.6768 152.8705 43.7411 152.8237 43.8055 152.7729 43.8897 152.7194 43.9914L151.1702 46.8771C151.0886 47.0256 151.007 47.1821 150.9253 47.3454 150.8423 47.5087 150.766 47.6677 150.6951 47.8216H150.6872C150.6926 47.6342 150.6966 47.4418 150.6991 47.245 150.702 47.0497 150.7031 46.8544 150.7031 46.6617V43.5994C150.7031 43.5807 150.698 43.5631 150.6872 43.5458 150.675 43.5297 150.6563 43.5163 150.6311 43.507 150.6042 43.4976 150.5707 43.4897 150.5279 43.4829 150.4851 43.4761 150.4304 43.4735 150.3646 43.4735 150.2977 43.4735 150.243 43.4761 150.2002 43.4829 150.1574 43.4897 150.124 43.4976 150.0999 43.507 150.0744 43.5163 150.0571 43.5297 150.0449 43.5458 150.0344 43.5631 150.029 43.5807 150.029 43.5994V48.2805C150.029 48.3849 150.0585 48.4597 150.1186 48.5039 150.1775 48.5481 150.2416 48.5708 150.3125 48.5708H150.6444C150.7218 48.5708 150.7876 48.564 150.8397 48.5507 150.8933 48.5388 150.9401 48.5158 150.9814 48.4866 151.0228 48.4571 151.0645 48.4143 151.1033 48.3608 151.1419 48.3072 151.1836 48.2403 151.2264 48.1586L152.4169 45.9326C152.4906 45.796 152.5615 45.6636 152.6298 45.5338 152.6978 45.4042 152.7647 45.2769 152.8277 45.1514 152.8906 45.0269 152.9535 44.9025 153.015 44.7806 153.078 44.6601 153.138 44.5371 153.1996 44.4141H153.2035C153.1984 44.6216 153.1942 44.8356 153.193 45.059 153.1916 45.2823 153.1916 45.4978 153.1916 45.7038V48.4532C153.1916 48.4719 153.197 48.4892 153.2078 48.5039 153.2197 48.5201 153.2384 48.5334 153.2639 48.5453 153.2906 48.5575 153.3254 48.5654 153.3668 48.5708 153.4096 48.5762 153.466 48.5787 153.5355 48.5787 153.5956 48.5787 153.6477 48.5762 153.6919 48.5708 153.7362 48.5654 153.771 48.5575 153.7951 48.5453 153.8203 48.5334 153.8379 48.5201 153.8498 48.5039 153.8606 48.4892 153.866 48.4719 153.866 48.4532ZM160.3602 47.8777C160.3602 47.8284 160.3576 47.7842 160.3522 47.7468 160.3468 47.7094 160.3389 47.677 160.3295 47.6518 160.3188 47.6277 160.3054 47.6101 160.2893 47.5994 160.2746 47.5889 160.2573 47.5835 160.2386 47.5835 160.2077 47.5835 160.1555 47.609 160.0821 47.6583 160.0084 47.7079 159.9109 47.7641 159.7876 47.8242 159.6645 47.8845 159.5174 47.9407 159.3462 47.9903 159.175 48.0396 158.9715 48.0651 158.7373 48.0651 158.4564 48.0651 158.2064 48.0144 157.9842 47.9126 157.7622 47.8094 157.5734 47.6691 157.4198 47.4885 157.2644 47.308 157.1468 47.0937 157.0637 46.8451 156.9821 46.5962 156.9407 46.3272 156.9407 46.0369 156.9407 45.7118 156.9861 45.4241 157.0759 45.1726 157.1669 44.9223 157.2914 44.7097 157.4518 44.5371 157.6111 44.3645 157.801 44.2335 158.023 44.1451 158.2438 44.0555 158.4873 44.0113 158.7509 44.0113 158.9088 44.0113 159.0678 44.03 159.2286 44.0688 159.389 44.1062 159.539 44.1638 159.6779 44.2389V45.7211H158.5035C158.4578 45.7211 158.4244 45.7438 158.4031 45.788 158.3802 45.8323 158.3697 45.9017 158.3697 45.9967 158.3697 46.0463 158.3722 46.0891 158.3776 46.1239 158.383 46.1585 158.3909 46.188 158.4031 46.2107 158.415 46.2322 158.4283 46.2484 158.4445 46.2589 158.4592 46.2696 158.4794 46.275 158.5035 46.275H160.1127C160.1422 46.275 160.1702 46.2696 160.1997 46.2589 160.2278 46.2484 160.2547 46.2336 160.2774 46.2121 160.3015 46.1908 160.3202 46.1628 160.3321 46.1265 160.3457 46.0891 160.3522 46.0477 160.3522 46.0006V44.0649C160.3522 43.9965 160.3403 43.9379 160.3174 43.8883 160.2933 43.8389 160.2439 43.7947 160.1677 43.7573 160.0929 43.7196 159.9936 43.6782 159.8732 43.634 159.753 43.5886 159.63 43.5512 159.5013 43.5192 159.3729 43.4883 159.2433 43.4642 159.1135 43.4494 158.9822 43.4333 158.8524 43.4254 158.7254 43.4254 158.332 43.4254 157.9816 43.4857 157.6738 43.6073 157.3648 43.7292 157.104 43.903 156.8911 44.1278 156.6785 44.3526 156.5152 44.6216 156.403 44.9359 156.2905 45.2503 156.2343 45.5995 156.2343 45.9873 156.2343 46.3901 156.2944 46.7552 156.4163 47.0818 156.5379 47.4083 156.7091 47.6864 156.93 47.918 157.1508 48.1482 157.4155 48.3259 157.7248 48.4532 158.0352 48.5802 158.3776 48.6431 158.7535 48.6431 158.9474 48.6431 159.1282 48.6255 159.298 48.5921 159.4678 48.5575 159.6192 48.5172 159.7516 48.4719 159.8828 48.4251 159.9936 48.3755 160.0846 48.3205 160.1742 48.2672 160.236 48.223 160.2706 48.1881 160.304 48.1547 160.3281 48.1147 160.3403 48.0705 160.3536 48.0263 160.3602 47.9622 160.3602 47.8777ZM163.6384 43.5994C163.6384 43.5779 163.6333 43.5591 163.6226 43.5444 163.6118 43.5285 163.5945 43.5163 163.5676 43.507 163.5423 43.4976 163.5075 43.4897 163.4647 43.4829 163.4204 43.4761 163.3669 43.4735 163.3014 43.4735 163.2385 43.4735 163.1849 43.4761 163.1409 43.4829 163.0967 43.4897 163.0607 43.4976 163.0352 43.507 163.0083 43.5163 162.991 43.5285 162.9802 43.5444 162.9697 43.5591 162.9643 43.5779 162.9643 43.5994V48.469C162.9643 48.4906 162.9697 48.5093 162.9816 48.524 162.9938 48.5399 163.0137 48.5521 163.0406 48.5614 163.0687 48.5708 163.1035 48.5787 163.1463 48.5855 163.1891 48.5921 163.2413 48.5949 163.3014 48.5949 163.3669 48.5949 163.4204 48.5921 163.4647 48.5855 163.5075 48.5787 163.5423 48.5708 163.5676 48.5614 163.5945 48.5521 163.6118 48.5399 163.6226 48.524 163.6333 48.5093 163.6384 48.4906 163.6384 48.469ZM170.1692 43.78C170.1692 43.7278 170.1598 43.6822 170.1422 43.6462 170.1249 43.6099 170.1023 43.5793 170.0742 43.5566 170.0461 43.5325 170.0138 43.5163 169.9792 43.5056 169.943 43.4951 169.9081 43.4897 169.8735 43.4897H169.6499C169.5804 43.4897 169.5189 43.4962 169.4653 43.511 169.4132 43.5257 169.3636 43.5512 169.3157 43.5886 169.2686 43.626 169.2204 43.6768 169.1736 43.7411 169.1269 43.8055 169.0761 43.8897 169.0226 43.9914L167.4734 46.8771C167.3918 47.0256 167.3101 47.1821 167.2285 47.3454 167.1454 47.5087 167.0692 47.6677 166.9983 47.8216H166.9904C166.9958 47.6342 166.9997 47.4418 167.0023 47.245 167.0051 47.0497 167.0063 46.8544 167.0063 46.6617V43.5994C167.0063 43.5807 167.0012 43.5631 166.9904 43.5458 166.9782 43.5297 166.9595 43.5163 166.9343 43.507 166.9073 43.4976 166.8739 43.4897 166.8311 43.4829 166.7883 43.4761 166.7336 43.4735 166.6678 43.4735 166.6009 43.4735 166.5462 43.4761 166.5034 43.4829 166.4606 43.4897 166.4271 43.4976 166.4031 43.507 166.3775 43.5163 166.3603 43.5297 166.3481 43.5458 166.3376 43.5631 166.3322 43.5807 166.3322 43.5994V48.2805C166.3322 48.3849 166.3617 48.4597 166.4218 48.5039 166.4807 48.5481 166.5448 48.5708 166.6157 48.5708H166.9476C167.025 48.5708 167.0907 48.564 167.1429 48.5507 167.1965 48.5388 167.2432 48.5158 167.2846 48.4866 167.326 48.4571 167.3677 48.4143 167.4065 48.3608 167.4451 48.3072 167.4867 48.2403 167.5295 48.1586L168.7201 45.9326C168.7938 45.796 168.8647 45.6636 168.933 45.5338 169.001 45.4042 169.0679 45.2769 169.1308 45.1514 169.1938 45.0269 169.2567 44.9025 169.3182 44.7806 169.3811 44.6601 169.4412 44.5371 169.5027 44.4141H169.5067C169.5016 44.6216 169.4974 44.8356 169.4962 45.059 169.4948 45.2823 169.4948 45.4978 169.4948 45.7038V48.4532C169.4948 48.4719 169.5002 48.4892 169.511 48.5039 169.5229 48.5201 169.5416 48.5334 169.5671 48.5453 169.5937 48.5575 169.6286 48.5654 169.67 48.5708 169.7128 48.5762 169.7692 48.5787 169.8386 48.5787 169.8987 48.5787 169.9509 48.5762 169.9951 48.5708 170.0393 48.5654 170.0742 48.5575 170.0983 48.5453 170.1235 48.5334 170.1411 48.5201 170.153 48.5039 170.1638 48.4892 170.1692 48.4719 170.1692 48.4532ZM175.6843 43.7771C175.6843 43.7292 175.6814 43.6876 175.676 43.6527 175.6706 43.6181 175.6613 43.5886 175.6494 43.5645 175.6361 43.5404 175.6213 43.5243 175.6037 43.5138 175.5865 43.503 175.5677 43.4976 175.5465 43.4976H173.1101C173.05 43.4976 172.9925 43.5178 172.9389 43.5577 172.8853 43.5994 172.8587 43.6703 172.8587 43.772V48.2964C172.8587 48.3982 172.8853 48.469 172.9389 48.5107 172.9925 48.5507 173.05 48.5708 173.1101 48.5708H175.5181C175.5397 48.5708 175.5584 48.5654 175.5757 48.5546 175.5933 48.5442 175.6066 48.528 175.6174 48.5039 175.6267 48.4798 175.6361 48.4503 175.6426 48.4155 175.6494 48.3809 175.6519 48.3367 175.6519 48.2845 175.6519 48.2363 175.6494 48.1961 175.6426 48.1601 175.6361 48.1252 175.6267 48.0957 175.6174 48.073 175.6066 48.0518 175.5918 48.0356 175.5757 48.0249 175.5584 48.0144 175.5397 48.009 175.5181 48.009H173.5328V46.4196H175.2372C175.2588 46.4196 175.2775 46.4142 175.2948 46.402 175.3109 46.3901 175.3257 46.374 175.3376 46.3527 175.3498 46.3311 175.3577 46.3031 175.3631 46.2671 175.3685 46.2297 175.371 46.1869 175.371 46.1373 175.371 46.0891 175.3685 46.0488 175.3631 46.0154 175.3577 45.9808 175.3498 45.9539 175.3376 45.9326 175.3257 45.9111 175.3109 45.8963 175.2948 45.887 175.2775 45.8776 175.2588 45.8736 175.2372 45.8736H173.5328V44.0595H175.5465C175.5677 44.0595 175.5865 44.0541 175.6037 44.0436 175.6213 44.0328 175.6361 44.0167 175.6494 43.9954 175.6613 43.9724 175.6706 43.9432 175.676 43.9084 175.6814 43.8735 175.6843 43.8293 175.6843 43.7771ZM180.9493 43.7771C180.9493 43.7292 180.9465 43.6876 180.9411 43.6527 180.9357 43.6181 180.9264 43.5886 180.9145 43.5645 180.9011 43.5404 180.8864 43.5243 180.8688 43.5138 180.8515 43.503 180.8328 43.4976 180.8116 43.4976H178.3752C178.3151 43.4976 178.2575 43.5178 178.204 43.5577 178.1504 43.5994 178.1237 43.6703 178.1237 43.772V48.2964C178.1237 48.3982 178.1504 48.469 178.204 48.5107 178.2575 48.5507 178.3151 48.5708 178.3752 48.5708H180.7832C180.8048 48.5708 180.8235 48.5654 180.8408 48.5546 180.8583 48.5442 180.8717 48.528 180.8824 48.5039 180.8918 48.4798 180.9011 48.4503 180.9077 48.4155 180.9145 48.3809 180.917 48.3367 180.917 48.2845 180.917 48.2363 180.9145 48.1961 180.9077 48.1601 180.9011 48.1252 180.8918 48.0957 180.8824 48.073 180.8717 48.0518 180.8569 48.0356 180.8408 48.0249 180.8235 48.0144 180.8048 48.009 180.7832 48.009H178.7978V46.4196H180.5023C180.5238 46.4196 180.5426 46.4142 180.5598 46.402 180.576 46.3901 180.5907 46.374 180.6026 46.3527 180.6148 46.3311 180.6228 46.3031 180.6282 46.2671 180.6335 46.2297 180.6361 46.1869 180.6361 46.1373 180.6361 46.0891 180.6335 46.0488 180.6282 46.0154 180.6228 45.9808 180.6148 45.9539 180.6026 45.9326 180.5907 45.9111 180.576 45.8963 180.5598 45.887 180.5426 45.8776 180.5238 45.8736 180.5023 45.8736H178.7978V44.0595H180.8116C180.8328 44.0595 180.8515 44.0541 180.8688 44.0436 180.8864 44.0328 180.9011 44.0167 180.9145 43.9954 180.9264 43.9724 180.9357 43.9432 180.9411 43.9084 180.9465 43.8735 180.9493 43.8293 180.9493 43.7771ZM186.7723 43.5994C186.7723 43.5779 186.7683 43.5606 186.7601 43.5444 186.7521 43.5285 186.736 43.5149 186.7093 43.5044 186.6838 43.4951 186.6464 43.4869 186.5996 43.4815 186.5529 43.4761 186.4899 43.4735 186.4123 43.4735 186.3439 43.4735 186.2878 43.4761 186.245 43.4815 186.2022 43.4869 186.1673 43.4951 186.1407 43.507 186.1152 43.5192 186.0953 43.5351 186.0806 43.5566 186.0659 43.5764 186.0537 43.6034 186.0432 43.634L185.5774 44.8316C185.5227 44.968 185.4652 45.0924 185.4062 45.2061 185.3473 45.3197 185.2778 45.4175 185.1962 45.5003 185.116 45.5834 185.0196 45.6463 184.9099 45.6931 184.8002 45.7384 184.6678 45.7614 184.5139 45.7614H184.0629V43.5994C184.0629 43.5779 184.0578 43.5606 184.0456 43.5444 184.0337 43.5285 184.015 43.5163 183.9909 43.507 183.9654 43.4976 183.9319 43.4897 183.8891 43.4829 183.8449 43.4761 183.7913 43.4735 183.7259 43.4735 183.6604 43.4735 183.6068 43.4761 183.5626 43.4829 183.5198 43.4897 183.4852 43.4976 183.4597 43.507 183.4328 43.5163 183.4155 43.5285 183.4047 43.5444 183.3942 43.5591 183.3888 43.5779 183.3888 43.5994V48.2964C183.3888 48.3982 183.4155 48.469 183.469 48.5107 183.5226 48.5507 183.5802 48.5708 183.6403 48.5708H184.7186C184.847 48.5708 184.9527 48.5683 185.0383 48.5614 185.1225 48.5546 185.1987 48.5467 185.2671 48.5399 185.4638 48.5053 185.6364 48.4517 185.7875 48.3795 185.9374 48.3058 186.063 48.2136 186.1648 48.1011 186.2677 47.9889 186.3439 47.8604 186.395 47.7145 186.4457 47.5702 186.4712 47.4094 186.4712 47.2343 186.4712 47.0656 186.4485 46.9131 186.4029 46.7782 186.3561 46.6444 186.2906 46.5253 186.205 46.4221 186.118 46.3192 186.0148 46.2297 185.8946 46.1534 185.7742 46.0783 185.6404 46.0142 185.4904 45.9621 185.5749 45.9244 185.6497 45.879 185.718 45.8229 185.7861 45.7668 185.849 45.6985 185.908 45.6208 185.9669 45.542 186.0231 45.451 186.0752 45.3492 186.1274 45.2475 186.1795 45.1324 186.2317 45.004L186.6866 43.8857C186.7226 43.7919 186.7467 43.725 186.7561 43.6876 186.7669 43.6501 186.7723 43.6207 186.7723 43.5994ZM185.7569 47.166C185.7569 47.3641 185.7127 47.5328 185.6231 47.6705 185.5346 47.8069 185.3861 47.9058 185.1761 47.9662 185.1106 47.9849 185.0369 47.9968 184.9552 48.005 184.8725 48.0129 184.7653 48.0169 184.6315 48.0169H184.0629V46.3071H184.7211C184.8991 46.3071 185.053 46.3286 185.1829 46.3714 185.3113 46.4156 185.4196 46.4757 185.5052 46.552 185.5922 46.6296 185.6551 46.7206 185.6965 46.8249 185.7368 46.9293 185.7569 47.0429 185.7569 47.166ZM189.7668 43.5994C189.7668 43.5779 189.7617 43.5591 189.7509 43.5444 189.7401 43.5285 189.7228 43.5163 189.6959 43.507 189.6707 43.4976 189.6358 43.4897 189.593 43.4829 189.5488 43.4761 189.4952 43.4735 189.4297 43.4735 189.3668 43.4735 189.3132 43.4761 189.2693 43.4829 189.2251 43.4897 189.1891 43.4976 189.1636 43.507 189.1366 43.5163 189.1193 43.5285 189.1086 43.5444 189.0981 43.5591 189.0927 43.5779 189.0927 43.5994V48.469C189.0927 48.4906 189.0981 48.5093 189.11 48.524 189.1222 48.5399 189.142 48.5521 189.1689 48.5614 189.197 48.5708 189.2319 48.5787 189.2747 48.5855 189.3175 48.5921 189.3696 48.5949 189.4297 48.5949 189.4952 48.5949 189.5488 48.5921 189.593 48.5855 189.6358 48.5787 189.6707 48.5708 189.6959 48.5614 189.7228 48.5521 189.7401 48.5399 189.7509 48.524 189.7617 48.5093 189.7668 48.4906 189.7668 48.469ZM196.2975 43.78C196.2975 43.7278 196.2882 43.6822 196.2706 43.6462 196.2533 43.6099 196.2306 43.5793 196.2026 43.5566 196.1745 43.5325 196.1422 43.5163 196.1076 43.5056 196.0713 43.4951 196.0364 43.4897 196.0019 43.4897H195.7782C195.7088 43.4897 195.6472 43.4962 195.5937 43.511 195.5415 43.5257 195.4919 43.5512 195.444 43.5886 195.3969 43.626 195.3488 43.6768 195.302 43.7411 195.2552 43.8055 195.2045 43.8897 195.1509 43.9914L193.6018 46.8771C193.5201 47.0256 193.4385 47.1821 193.3569 47.3454 193.2738 47.5087 193.1975 47.6677 193.1267 47.8216H193.1187C193.1241 47.6342 193.1281 47.4418 193.1306 47.245 193.1335 47.0497 193.1346 46.8544 193.1346 46.6617V43.5994C193.1346 43.5807 193.1295 43.5631 193.1187 43.5458 193.1066 43.5297 193.0878 43.5163 193.0626 43.507 193.0357 43.4976 193.0022 43.4897 192.9594 43.4829 192.9166 43.4761 192.8619 43.4735 192.7962 43.4735 192.7293 43.4735 192.6746 43.4761 192.6317 43.4829 192.5889 43.4897 192.5555 43.4976 192.5314 43.507 192.5059 43.5163 192.4886 43.5297 192.4764 43.5458 192.4659 43.5631 192.4605 43.5807 192.4605 43.5994V48.2805C192.4605 48.3849 192.49 48.4597 192.5501 48.5039 192.6091 48.5481 192.6731 48.5708 192.744 48.5708H193.0759C193.1533 48.5708 193.2191 48.564 193.2712 48.5507 193.3248 48.5388 193.3716 48.5158 193.413 48.4866 193.4544 48.4571 193.496 48.4143 193.5349 48.3608 193.5734 48.3072 193.6151 48.2403 193.6579 48.1586L194.8484 45.9326C194.9221 45.796 194.993 45.6636 195.0613 45.5338 195.1294 45.4042 195.1963 45.2769 195.2592 45.1514 195.3221 45.0269 195.385 44.9025 195.4466 44.7806 195.5095 44.6601 195.5696 44.5371 195.6311 44.4141H195.6351C195.63 44.6216 195.6257 44.8356 195.6246 45.059 195.6231 45.2823 195.6231 45.4978 195.6231 45.7038V48.4532C195.6231 48.4719 195.6285 48.4892 195.6393 48.5039 195.6512 48.5201 195.6699 48.5334 195.6954 48.5453 195.7221 48.5575 195.7569 48.5654 195.7983 48.5708 195.8411 48.5762 195.8975 48.5787 195.967 48.5787 196.0271 48.5787 196.0792 48.5762 196.1235 48.5708 196.1677 48.5654 196.2026 48.5575 196.2266 48.5453 196.2519 48.5334 196.2694 48.5201 196.2814 48.5039 196.2921 48.4892 196.2975 48.4719 196.2975 48.4532ZM202.7917 47.8777C202.7917 47.8284 202.7891 47.7842 202.7837 47.7468 202.7784 47.7094 202.7704 47.677 202.7611 47.6518 202.7503 47.6277 202.737 47.6101 202.7208 47.5994 202.7061 47.5889 202.6888 47.5835 202.6701 47.5835 202.6392 47.5835 202.587 47.609 202.5136 47.6583 202.4399 47.7079 202.3424 47.7641 202.2191 47.8242 202.0961 47.8845 201.9489 47.9407 201.7777 47.9903 201.6065 48.0396 201.403 48.0651 201.1689 48.0651 200.8879 48.0651 200.6379 48.0144 200.4157 47.9126 200.1937 47.8094 200.0049 47.6691 199.8513 47.4885 199.696 47.308 199.5783 47.0937 199.4953 46.8451 199.4136 46.5962 199.3723 46.3272 199.3723 46.0369 199.3723 45.7118 199.4176 45.4241 199.5075 45.1726 199.5985 44.9223 199.7229 44.7097 199.8833 44.5371 200.0426 44.3645 200.2326 44.2335 200.4545 44.1451 200.6753 44.0555 200.9188 44.0113 201.1825 44.0113 201.3403 44.0113 201.4994 44.03 201.6601 44.0688 201.8205 44.1062 201.9705 44.1638 202.1094 44.2389V45.7211H200.935C200.8894 45.7211 200.8559 45.7438 200.8346 45.788 200.8117 45.8323 200.8012 45.9017 200.8012 45.9967 200.8012 46.0463 200.8037 46.0891 200.8091 46.1239 200.8145 46.1585 200.8225 46.188 200.8346 46.2107 200.8466 46.2322 200.8599 46.2484 200.876 46.2589 200.8908 46.2696 200.9109 46.275 200.935 46.275H202.5442C202.5737 46.275 202.6018 46.2696 202.6312 46.2589 202.6593 46.2484 202.6862 46.2336 202.7089 46.2121 202.733 46.1908 202.7517 46.1628 202.7636 46.1265 202.7772 46.0891 202.7837 46.0477 202.7837 46.0006V44.0649C202.7837 43.9965 202.7718 43.9379 202.7489 43.8883 202.7248 43.8389 202.6755 43.7947 202.5992 43.7573 202.5244 43.7196 202.4252 43.6782 202.3047 43.634 202.1845 43.5886 202.0615 43.5512 201.9328 43.5192 201.8044 43.4883 201.6748 43.4642 201.545 43.4494 201.4138 43.4333 201.2839 43.4254 201.1569 43.4254 200.7635 43.4254 200.4131 43.4857 200.1053 43.6073 199.7963 43.7292 199.5355 43.903 199.3226 44.1278 199.11 44.3526 198.9468 44.6216 198.8345 44.9359 198.722 45.2503 198.6659 45.5995 198.6659 45.9873 198.6659 46.3901 198.726 46.7552 198.8478 47.0818 198.9694 47.4083 199.1407 47.6864 199.3615 47.918 199.5823 48.1482 199.8471 48.3259 200.1563 48.4532 200.4667 48.5802 200.8091 48.6431 201.185 48.6431 201.3789 48.6431 201.5597 48.6255 201.7295 48.5921 201.8993 48.5575 202.0507 48.5172 202.1831 48.4719 202.3143 48.4251 202.4252 48.3755 202.5162 48.3205 202.6057 48.2672 202.6675 48.223 202.7021 48.1881 202.7356 48.1547 202.7597 48.1147 202.7718 48.0705 202.7852 48.0263 202.7917 47.9622 202.7917 47.8777" fill="#1a1a18"/>
<path transform="matrix(1,0,0,-1,1,152.2)" d="M159.0494 99.1069 191.2082 82.9604 191.4888 72.5839 189.993 81.7452 159.3283 95.0814Z" fill="#009ee3" fill-rule="evenodd"/>
<path transform="matrix(1,0,0,-1,1,152.2)" d="M76.9742 107.7749 118.8357 86.0255 119.1966 72.6877 117.2738 84.4634 78.0823 101.1906Z" fill="#009ee3" fill-rule="evenodd"/>
<path transform="matrix(1,0,0,-1,1,152.2)" d="M105.3428 104.7801 143.6987 85.4189 144.0334 73.0423 142.249 83.9693 105.6759 99.1894Z" fill="#009ee3" fill-rule="evenodd"/>
<path transform="matrix(1,0,0,-1,1,152.2)" d="M132.3791 101.9225 167.8674 83.9163 168.1773 72.4649 166.5264 82.5752 132.6872 97.1209Z" fill="#009ee3" fill-rule="evenodd"/>
</g>
</svg>
